<svg xmlns="http://www.w3.org/2000/svg" width="284" height="74" style="shape-rendering:geometricPrecision;text-rendering:geometricPrecision;image-rendering:optimizeQuality;fill-rule:evenodd;clip-rule:evenodd"><path style="opacity:1" fill="#030303" d="M-.5-.5h284v74H-.5v-74z"/><path style="opacity:1" fill="#eaeaea" d="M141.5 51.5c-2.156-2.302-3.823-4.968-5-8a9.864 9.864 0 0 1 6-1c.891.761 1.558 1.761 2 3 3.284 1.157 6.618 1.324 10 .5 1.091-2.064 1.258-4.23.5-6.5a97.793 97.793 0 0 0-13-4 15.74 15.74 0 0 1-3.5-4c-.914-3.228-1.247-6.561-1-10 1.255-3.077 3.588-4.91 7-5.5 5.163-.817 10.163-.317 15 1.5 1.42 2.761 2.087 5.761 2 9h-6c.363-2.412-.637-3.912-3-4.5a16.25 16.25 0 0 0-8 0c-1.091 2.064-1.258 4.23-.5 6.5a1279.506 1279.506 0 0 1 15.5 6c2.482 4.524 2.649 9.19.5 14-5.522 4.15-11.688 5.15-18.5 3z"/><path style="opacity:1" fill="#fcfcfc" d="M267.5 15.5v35h-5v-35h5z"/><path style="opacity:1" fill="#cbcbcb" d="M267.5 15.5a342.787 342.787 0 0 1 1 37c-2.582.475-4.582-.192-6-2h5v-35z"/><path style="opacity:1" fill="#e3e3e3" d="M224.5 15.5c4.288.058 5.621 2.058 4 6-3.304 1.855-5.304 1.022-6-2.5.362-1.434 1.028-2.6 2-3.5z"/><path style="opacity:1" fill="#f1f1f1" d="M39.5 16.5c6.268.94 9.268 4.606 9 11 .772 6.888-2.228 10.888-9 12h-11v12h-5v-35h16z"/><path style="opacity:1" fill="#e4b067" d="M63.5 21.5v-5c5.585-1.913 7.252-.08 5 5.5-1.887.78-3.554.613-5-.5z"/><path style="opacity:1" fill="#25a453" d="M73.5 15.5h6c1.344 6.162-.822 8.162-6.5 6-.678-2.098-.51-4.098.5-6z"/><path style="opacity:1" fill="#32110f" d="M54.5 15.5c-.869 2.217-1.202 4.55-1 7 5.747.628 7.414-1.705 5-7 1.617.538 3.284.871 5 1v5c-1.367-1.353-2.367-1.02-3 1-2.606 1.152-5.273 1.318-8 .5-1.423-3.149-.756-5.649 2-7.5z"/><path style="opacity:1" fill="#d5676a" d="M54.5 15.5h4c2.414 5.295.747 7.628-5 7-.202-2.45.131-4.783 1-7z"/><path style="opacity:1" fill="#0d0d0d" d="M29.5 21.5c4.662-.696 8.829.304 12.5 3 1.12 3.5.287 6.333-2.5 8.5-3.317.498-6.65.665-10 .5v-12z"/><path style="opacity:1" fill="#adadad" d="M39.5 16.5h-16v35h-1v-36c5.858-.322 11.525.011 17 1z"/><path style="opacity:1" fill="#ededed" d="M95.5 46.5c-1.333-4.667-1.333-9.333 0-14 .586-3.312 2.586-5.146 6-5.5 3.912-.93 7.412-.098 10.5 2.5 1.754-1.75 3.921-2.417 6.5-2 .166 9.006 0 18.006-.5 27-.879 3.201-2.545 5.868-5 8-4.413 1.132-8.913 1.3-13.5.5-3.445-2.273-5.445-5.44-6-9.5h7a6.845 6.845 0 0 0 1 4c7.835 2.004 11.335-.996 10.5-9-6.178 4.385-11.678 3.718-16.5-2z"/><path style="opacity:1" fill="#e5e5e5" d="M175.5 26.5c2.357-.163 4.69.003 7 .5a35.565 35.565 0 0 1 8 6.5c2.274 14.226-3.726 20.393-18 18.5-6.863-4.958-8.696-11.458-5.5-19.5 2.274-3.004 5.107-5.004 8.5-6z"/><path style="opacity:1" fill="#e7e7e7" d="M211.5 43.5h6v3a39.012 39.012 0 0 1-5 5.5c-4 .667-8 .667-12 0l-5.5-7.5a25.238 25.238 0 0 1 0-10c6.685-9.828 14.351-10.495 23-2a8.43 8.43 0 0 1 .5 4h-7c.17-1.322-.163-2.489-1-3.5-7.897-1.096-11.064 2.404-9.5 10.5 1.5.833 2.667 2 3.5 3.5 3.705 1.313 6.038.146 7-3.5z"/><path style="opacity:1" fill="#f1f1f1" d="M223.5 27.5h6v25h-6v-25z"/><path style="opacity:1" fill="#787878" d="M137.5 21.5c-.247 3.439.086 6.772 1 10-1.277-1.194-1.944-2.86-2-5 .007-1.87.34-3.536 1-5z"/><path style="opacity:1" fill="#f8f8f8" d="M81.5 27.5c3.629.295 5.629 2.295 6 6v18h-4c.166-5.344 0-10.677-.5-16-.278-.916-.778-1.583-1.5-2-3.034-1.602-5.7-1.269-8 1-1 .333-1.667 1-2 2-.986 4.47-1.32 9.137-1 14h-4v-22c2.07-.051 3.903.615 5.5 2a41.141 41.141 0 0 1 9.5-3z"/><path style="opacity:1" fill="#f2f2f2" d="M53.5 27.5h6v25h-6v-25z"/><path style="opacity:1" fill="#131313" d="M100.5 43.5a21.445 21.445 0 0 1-1-7 18.476 18.476 0 0 1 2-3.5 23.79 23.79 0 0 1 10 .5c2.847 6.71.847 11.044-6 13-2.193-.27-3.859-1.27-5-3z"/><path style="opacity:1" fill="#0f0f0f" d="M175.5 32.5c8.062-.577 10.896 3.09 8.5 11-4.436 5.394-8.436 5.061-12-1-1.244-4.309-.077-7.642 3.5-10z"/><path style="opacity:1" fill="#a5a5a5" d="M95.5 32.5c-1.333 4.667-1.333 9.333 0 14-.997.03-1.664-.47-2-1.5-1.333-3.667-1.333-7.333 0-11 .336-1.03 1.003-1.53 2-1.5z"/><path style="opacity:1" fill="#787878" d="M248.5 32.5c1.756 1.052 2.423 2.719 2 5h-5c1.068-.934 2.401-1.268 4-1 .067-1.459-.266-2.792-1-4z"/><path style="opacity:1" fill="#949494" d="M99.5 36.5a21.445 21.445 0 0 0 1 7c-1.493-.812-2.16-2.145-2-4 .02-1.226.353-2.226 1-3z"/><path style="opacity:1" fill="#515151" d="M73.5 34.5a481.958 481.958 0 0 1-2 17v-15c.333-1 1-1.667 2-2z"/><path style="opacity:1" fill="silver" d="M81.5 27.5a41.141 41.141 0 0 0-9.5 3c-1.597-1.385-3.43-2.051-5.5-2v22h4c-.32-4.863.014-9.53 1-14v15c-1.765.961-3.765 1.295-6 1v-25c5.62.922 10.954.922 16 0z"/><path style="opacity:1" fill="#adadad" d="M81.5 33.5c.722.417 1.222 1.084 1.5 2 .5 5.323.666 10.656.5 16h4v1h-5a111.86 111.86 0 0 0-1-19z"/><path style="opacity:1" fill="#eaeaea" d="M251.5 52.5c-.132-4.939-1.465-5.272-4-1-4.369 1.735-8.369 1.069-12-2a21.434 21.434 0 0 1-1-7c2.214-4.45 5.881-6.116 11-5h5c.423-2.281-.244-3.948-2-5-3.988-1.957-6.655-.957-8 3h-5c.406-6.067 3.74-9.067 10-9 2.367.342 4.7.842 7 1.5a46.996 46.996 0 0 0 3.5 5.5c.5 6.325.666 12.658.5 19h-5z"/><path style="opacity:1" fill="#4b4b4b" d="M142.5 42.5a9.864 9.864 0 0 0-6 1c1.177 3.032 2.844 5.698 5 8-2.591-.754-4.424-2.421-5.5-5a12.93 12.93 0 0 1-.5-5c2.559-.302 4.893.032 7 1z"/><path style="opacity:1" fill="#191919" d="M242.5 41.5h8c.097 4.142-1.903 6.476-6 7-4.333-1.328-4.999-3.661-2-7z"/><path style="opacity:1" fill="#6c6c6c" d="M211.5 43.5c2.524-1.3 5.191-1.3 8 0-.442 1.239-1.109 2.239-2 3v-3h-6z"/><path style="opacity:1" fill="#7f7f7f" d="M39.5 39.5c-3.125.98-6.458 1.313-10 1v12c-2.56.302-4.893-.032-7-1h6v-12h11z"/><path style="opacity:1" fill="#707070" d="M87.5 33.5c1.318 2.758 1.985 5.924 2 9.5-.015 3.576-.682 6.742-2 9.5v-19z"/><path style="opacity:1" fill="#565656" d="M234.5 42.5a21.434 21.434 0 0 0 1 7c-1.493-.812-2.16-2.145-2-4 .02-1.226.353-2.226 1-3z"/><path style="opacity:1" fill="#5c5c5c" d="M251.5 52.5c-1.208-.734-2.541-1.067-4-1 2.535-4.272 3.868-3.939 4 1z"/></svg>